<mxfile host="app.diagrams.net" modified="2024-06-25T14:03:18.971Z" agent="Mozilla/5.0 (Windows NT 10.0; Win64; x64) AppleWebKit/537.36 (KHTML, like Gecko) Chrome/126.0.0.0 Safari/537.36" etag="y6Y1kiVpWi-gCFORhR2t" version="24.6.2" type="github">
  <diagram name="Architecture" id="KjC4Xg8tAK9j9PCu9dQ1">
    <mxGraphModel dx="1185" dy="632" grid="1" gridSize="10" guides="1" tooltips="1" connect="1" arrows="1" fold="1" page="1" pageScale="1" pageWidth="850" pageHeight="1100" math="0" shadow="0">
      <root>
        <mxCell id="KlxJ9Z5U4-zLsQv62aYy-0" />
        <mxCell id="KlxJ9Z5U4-zLsQv62aYy-1" parent="KlxJ9Z5U4-zLsQv62aYy-0" />
        <mxCell id="KlxJ9Z5U4-zLsQv62aYy-2" value="&lt;u&gt;Scene&lt;/u&gt;&lt;div&gt;Handle Ui logic&lt;br&gt;&lt;/div&gt;&lt;div&gt;&lt;span style=&quot;background-color: initial;&quot;&gt;Has Exports&lt;/span&gt;&lt;/div&gt;&lt;div&gt;&lt;span style=&quot;background-color: initial;&quot;&gt;Listen to Update_Message&lt;/span&gt;&lt;br&gt;&lt;/div&gt;&lt;div&gt;Sends Time_Message&lt;/div&gt;" style="rounded=1;whiteSpace=wrap;html=1;" parent="KlxJ9Z5U4-zLsQv62aYy-1" vertex="1">
          <mxGeometry x="40" y="180" width="200" height="90" as="geometry" />
        </mxCell>
        <mxCell id="KlxJ9Z5U4-zLsQv62aYy-3" value="&lt;u&gt;Model&lt;/u&gt;&lt;div&gt;&lt;span style=&quot;background-color: initial;&quot;&gt;Has method that call commands&lt;/span&gt;&lt;br&gt;&lt;/div&gt;&lt;div&gt;No logic&lt;/div&gt;" style="rounded=1;whiteSpace=wrap;html=1;" parent="KlxJ9Z5U4-zLsQv62aYy-1" vertex="1">
          <mxGeometry x="410" y="330" width="210" height="60" as="geometry" />
        </mxCell>
        <mxCell id="KlxJ9Z5U4-zLsQv62aYy-4" value="&lt;u&gt;Controller&lt;/u&gt;&lt;div&gt;Handle the logic of game&lt;u&gt;&lt;br&gt;&lt;/u&gt;&lt;div&gt;&lt;span style=&quot;background-color: initial;&quot;&gt;Singleton&lt;/span&gt;&lt;/div&gt;&lt;div&gt;&lt;span style=&quot;background-color: initial;&quot;&gt;Listen/&lt;/span&gt;&lt;span style=&quot;background-color: initial;&quot;&gt;Send messages&lt;/span&gt;&lt;/div&gt;&lt;/div&gt;" style="rounded=1;whiteSpace=wrap;html=1;" parent="KlxJ9Z5U4-zLsQv62aYy-1" vertex="1">
          <mxGeometry x="580" y="180" width="210" height="90" as="geometry" />
        </mxCell>
        <mxCell id="KlxJ9Z5U4-zLsQv62aYy-5" value="&lt;u&gt;Resource&lt;/u&gt;&lt;div&gt;Handle game data&lt;/div&gt;&lt;div&gt;&lt;span style=&quot;background-color: initial;&quot;&gt;In file system&lt;/span&gt;&lt;/div&gt;" style="rounded=1;whiteSpace=wrap;html=1;" parent="KlxJ9Z5U4-zLsQv62aYy-1" vertex="1">
          <mxGeometry x="310" y="180" width="210" height="90" as="geometry" />
        </mxCell>
        <mxCell id="KlxJ9Z5U4-zLsQv62aYy-6" value="" style="endArrow=classic;html=1;rounded=0;exitX=0.5;exitY=0;exitDx=0;exitDy=0;entryX=0.5;entryY=1;entryDx=0;entryDy=0;" parent="KlxJ9Z5U4-zLsQv62aYy-1" source="KlxJ9Z5U4-zLsQv62aYy-3" target="KlxJ9Z5U4-zLsQv62aYy-5" edge="1">
          <mxGeometry width="50" height="50" relative="1" as="geometry">
            <mxPoint x="390" y="410" as="sourcePoint" />
            <mxPoint x="440" y="360" as="targetPoint" />
            <Array as="points">
              <mxPoint x="515" y="300" />
              <mxPoint x="460" y="300" />
              <mxPoint x="415" y="300" />
            </Array>
          </mxGeometry>
        </mxCell>
        <mxCell id="KlxJ9Z5U4-zLsQv62aYy-7" value="" style="endArrow=classic;html=1;rounded=0;exitX=0.5;exitY=1;exitDx=0;exitDy=0;entryX=0;entryY=0.5;entryDx=0;entryDy=0;" parent="KlxJ9Z5U4-zLsQv62aYy-1" source="KlxJ9Z5U4-zLsQv62aYy-2" target="_q8Ff0tTg5JuddRTAkwV-0" edge="1">
          <mxGeometry width="50" height="50" relative="1" as="geometry">
            <mxPoint x="390" y="410" as="sourcePoint" />
            <mxPoint x="440" y="360" as="targetPoint" />
            <Array as="points">
              <mxPoint x="140" y="360" />
            </Array>
          </mxGeometry>
        </mxCell>
        <mxCell id="KlxJ9Z5U4-zLsQv62aYy-8" value="" style="endArrow=classic;html=1;rounded=0;entryX=1;entryY=0.5;entryDx=0;entryDy=0;exitX=0.539;exitY=0.979;exitDx=0;exitDy=0;exitPerimeter=0;" parent="KlxJ9Z5U4-zLsQv62aYy-1" source="KlxJ9Z5U4-zLsQv62aYy-4" target="KlxJ9Z5U4-zLsQv62aYy-3" edge="1">
          <mxGeometry width="50" height="50" relative="1" as="geometry">
            <mxPoint x="685" y="250" as="sourcePoint" />
            <mxPoint x="440" y="360" as="targetPoint" />
            <Array as="points">
              <mxPoint x="693" y="360" />
            </Array>
          </mxGeometry>
        </mxCell>
        <mxCell id="KlxJ9Z5U4-zLsQv62aYy-9" value="&lt;u&gt;Message&lt;/u&gt;&lt;div&gt;Multiple static listeners&lt;/div&gt;&lt;div&gt;No return value&lt;/div&gt;" style="rounded=1;whiteSpace=wrap;html=1;" parent="KlxJ9Z5U4-zLsQv62aYy-1" vertex="1">
          <mxGeometry x="270" y="460" width="280" height="50" as="geometry" />
        </mxCell>
        <mxCell id="_q8Ff0tTg5JuddRTAkwV-6" style="edgeStyle=orthogonalEdgeStyle;rounded=0;orthogonalLoop=1;jettySize=auto;html=1;exitX=0.5;exitY=0;exitDx=0;exitDy=0;entryX=0.5;entryY=1;entryDx=0;entryDy=0;endArrow=classic;endFill=0;" parent="KlxJ9Z5U4-zLsQv62aYy-1" source="KlxJ9Z5U4-zLsQv62aYy-10" target="KlxJ9Z5U4-zLsQv62aYy-9" edge="1">
          <mxGeometry relative="1" as="geometry" />
        </mxCell>
        <mxCell id="KlxJ9Z5U4-zLsQv62aYy-10" value="&lt;u&gt;Request&lt;/u&gt;&lt;div&gt;&lt;span style=&quot;background-color: initial;&quot;&gt;Return value&lt;/span&gt;&lt;br&gt;&lt;/div&gt;&lt;div&gt;&lt;div&gt;One static handler&lt;/div&gt;&lt;/div&gt;" style="rounded=1;whiteSpace=wrap;html=1;" parent="KlxJ9Z5U4-zLsQv62aYy-1" vertex="1">
          <mxGeometry x="410" y="550" width="280" height="70" as="geometry" />
        </mxCell>
        <mxCell id="_q8Ff0tTg5JuddRTAkwV-7" style="edgeStyle=orthogonalEdgeStyle;rounded=0;orthogonalLoop=1;jettySize=auto;html=1;exitX=0.5;exitY=0;exitDx=0;exitDy=0;entryX=0.5;entryY=1;entryDx=0;entryDy=0;endArrow=classic;endFill=0;" parent="KlxJ9Z5U4-zLsQv62aYy-1" source="KlxJ9Z5U4-zLsQv62aYy-11" target="KlxJ9Z5U4-zLsQv62aYy-9" edge="1">
          <mxGeometry relative="1" as="geometry" />
        </mxCell>
        <mxCell id="KlxJ9Z5U4-zLsQv62aYy-11" value="&lt;u&gt;Command&lt;/u&gt;&lt;div&gt;Call&amp;nbsp;Update_Message if root&lt;/div&gt;" style="rounded=1;whiteSpace=wrap;html=1;" parent="KlxJ9Z5U4-zLsQv62aYy-1" vertex="1">
          <mxGeometry x="90" y="550" width="280" height="70" as="geometry" />
        </mxCell>
        <mxCell id="_q8Ff0tTg5JuddRTAkwV-0" value="&lt;u&gt;IModel&lt;/u&gt;&lt;div&gt;&lt;div&gt;&lt;span style=&quot;background-color: initial;&quot;&gt;Handle&lt;/span&gt;&lt;span style=&quot;background-color: initial;&quot;&gt;&amp;nbsp;&lt;/span&gt;&lt;span style=&quot;background-color: initial;&quot;&gt;runtime&amp;nbsp;&lt;/span&gt;&lt;span style=&quot;background-color: initial;&quot;&gt;data&lt;/span&gt;&lt;/div&gt;&lt;/div&gt;&lt;div&gt;&lt;span style=&quot;background-color: initial;&quot;&gt;Has documentation&lt;/span&gt;&lt;/div&gt;" style="rounded=1;whiteSpace=wrap;html=1;" parent="KlxJ9Z5U4-zLsQv62aYy-1" vertex="1">
          <mxGeometry x="180" y="330" width="210" height="60" as="geometry" />
        </mxCell>
        <mxCell id="_q8Ff0tTg5JuddRTAkwV-5" style="edgeStyle=orthogonalEdgeStyle;rounded=0;orthogonalLoop=1;jettySize=auto;html=1;exitX=0;exitY=0.5;exitDx=0;exitDy=0;entryX=1.008;entryY=0.506;entryDx=0;entryDy=0;entryPerimeter=0;endArrow=block;endFill=0;" parent="KlxJ9Z5U4-zLsQv62aYy-1" source="KlxJ9Z5U4-zLsQv62aYy-3" target="_q8Ff0tTg5JuddRTAkwV-0" edge="1">
          <mxGeometry relative="1" as="geometry" />
        </mxCell>
        <mxCell id="_q8Ff0tTg5JuddRTAkwV-11" style="edgeStyle=orthogonalEdgeStyle;rounded=0;orthogonalLoop=1;jettySize=auto;html=1;exitX=0;exitY=0.5;exitDx=0;exitDy=0;entryX=1;entryY=0.5;entryDx=0;entryDy=0;" parent="KlxJ9Z5U4-zLsQv62aYy-1" source="_q8Ff0tTg5JuddRTAkwV-8" target="KlxJ9Z5U4-zLsQv62aYy-9" edge="1">
          <mxGeometry relative="1" as="geometry" />
        </mxCell>
        <mxCell id="_q8Ff0tTg5JuddRTAkwV-8" value="&lt;u&gt;Mediator&lt;/u&gt;&lt;div&gt;Hold all the listeners&lt;/div&gt;" style="rounded=1;whiteSpace=wrap;html=1;" parent="KlxJ9Z5U4-zLsQv62aYy-1" vertex="1">
          <mxGeometry x="585" y="460" width="200" height="50" as="geometry" />
        </mxCell>
        <mxCell id="_q8Ff0tTg5JuddRTAkwV-9" value="" style="endArrow=none;html=1;rounded=0;" parent="KlxJ9Z5U4-zLsQv62aYy-1" edge="1">
          <mxGeometry width="50" height="50" relative="1" as="geometry">
            <mxPoint x="20" y="420" as="sourcePoint" />
            <mxPoint x="800" y="420" as="targetPoint" />
          </mxGeometry>
        </mxCell>
        <mxCell id="_q8Ff0tTg5JuddRTAkwV-12" style="edgeStyle=orthogonalEdgeStyle;rounded=0;orthogonalLoop=1;jettySize=auto;html=1;exitX=0.25;exitY=1;exitDx=0;exitDy=0;entryX=0.8;entryY=-0.015;entryDx=0;entryDy=0;entryPerimeter=0;" parent="KlxJ9Z5U4-zLsQv62aYy-1" source="_q8Ff0tTg5JuddRTAkwV-8" target="KlxJ9Z5U4-zLsQv62aYy-10" edge="1">
          <mxGeometry relative="1" as="geometry" />
        </mxCell>
      </root>
    </mxGraphModel>
  </diagram>
</mxfile>
